# xmcd CD database file
#
# Track frame offsets:
#	150
#	34677
#	60679
#	80925
#	102818
#	127471
#	152017
#	171942
#	189275
#	202917
#	222570
#	244794
#	263453
#	283162
#	309642
#
# Disc length: 4324 seconds
#
# Revision: 0
# Processed by: cddbd v1.5.2PL0 Copyright (c) Steve Scherf et al.
# Submitted via: CDex 1.51
#
DISCID=dd10e20f
DTITLE=Jazz Lips - Hotter Than That - CD6
DYEAR=2005
DGENRE=Jazz
TTITLE0=Really The Blues
TTITLE1=Martinique
TTITLE2=The Old Music Masters
TTITLE3=When I Grow Too Old To Dream
TTITLE4=What You Want Me To Do
TTITLE5=Change Of Key Boogie
TTITLE6=Go Down To New Orleans
TTITLE7=Aunt Hager's Blues
TTITLE8=Bohemia Rag
TTITLE9=Whistle Walk
TTITLE10=My Smiling Star
TTITLE11=Moose Marche
TTITLE12=Bombay
TTITLE13=Mardi Gras
TTITLE14=Shine
EXTD=YEAR: 2005
EXTT0=
EXTT1=
EXTT2=
EXTT3=
EXTT4=
EXTT5=
EXTT6=
EXTT7=
EXTT8=
EXTT9=
EXTT10=
EXTT11=
EXTT12=
EXTT13=
EXTT14=
PLAYORDER=
